<svg xmlns="http://www.w3.org/2000/svg" width="512" height="512" viewBox="0 0 512 512" version="1.1">
	<path d="M 240.539 86.042 C 204.760 91.675, 174.393 114.305, 158.754 146.988 C 156.514 151.670, 154.582 155.633, 154.461 155.796 C 154.340 155.959, 150.587 155.634, 146.120 155.074 C 114.051 151.053, 81.392 169.215, 66.232 199.500 C 60.251 211.448, 58.579 219.058, 58.541 234.500 C 58.500 250.907, 60.500 259.640, 67.110 271.924 C 77.818 291.824, 94.281 305.372, 116 312.157 L 123.500 314.500 252 314.500 C 396.160 314.500, 384.404 315.086, 401.619 307.045 C 433.113 292.334, 452.289 263.784, 453.703 229.500 C 454.367 213.393, 452.042 201.928, 445.234 187.760 C 432.802 161.882, 411.307 144.731, 383.391 138.414 C 375.256 136.573, 359.573 135.959, 352.500 137.205 L 348.500 137.909 344 131.280 C 338.016 122.464, 324.872 109.398, 316.162 103.608 C 298.629 91.952, 280.324 86.097, 259.500 85.486 C 252.350 85.276, 243.818 85.526, 240.539 86.042 M 242.539 102.043 C 230.135 103.994, 214.464 110.144, 204.597 116.934 C 188.850 127.767, 174.546 146.612, 169.388 163.318 C 167.413 169.715, 163.884 174.006, 160.614 173.988 C 159.451 173.982, 156.025 173.312, 153 172.500 C 145.866 170.585, 130.042 170.590, 122.460 172.509 C 105.981 176.680, 88.914 190.178, 81.552 204.864 C 71.557 224.800, 71.608 245.948, 81.697 265.300 C 87.092 275.649, 99.023 287.357, 109.189 292.278 C 123.959 299.428, 116.050 299.076, 254.753 298.773 L 379.500 298.500 387.500 295.692 C 408.031 288.486, 424.045 273.671, 432.286 254.258 C 438.989 238.468, 439.725 218.971, 434.230 202.770 C 430.096 190.583, 425.835 183.862, 416 174.012 C 406.149 164.147, 395.958 158.196, 383.355 154.947 C 374.127 152.569, 359.591 152.167, 350.203 154.029 C 341.731 155.710, 340.207 154.853, 333.676 144.729 C 316.315 117.816, 290.510 102.780, 259.566 101.547 C 253.480 101.304, 245.818 101.527, 242.539 102.043 M 139.332 338.851 C 132.330 341.271, 127.960 344.816, 124.812 350.630 C 118.842 361.657, 120.491 372.921, 129.336 381.521 C 145.921 397.647, 172.922 386.495, 172.968 363.500 C 172.992 352.048, 165.493 341.709, 154.878 338.556 C 148.248 336.588, 145.745 336.635, 139.332 338.851 M 249.139 338.147 C 233.995 342.506, 225.880 359.610, 232.358 373.521 C 237.079 383.660, 245.081 388.941, 255.782 388.978 C 266.773 389.016, 274.219 384.363, 279.130 374.387 C 281.949 368.661, 282.220 367.334, 281.755 361.540 C 280.425 344.972, 264.676 333.677, 249.139 338.147 M 356.183 338.902 C 334.793 346.289, 332.921 376.307, 353.220 386.422 C 363.232 391.411, 374.405 389.551, 382.664 381.521 C 386.742 377.555, 388.182 375.271, 389.513 370.653 C 393.571 356.572, 385.876 342.714, 371.655 338.490 C 365.228 336.581, 362.707 336.649, 356.183 338.902 M 142.420 354.885 C 136.395 358.559, 135.589 365.861, 140.686 370.585 C 146.770 376.224, 157.037 371.647, 156.968 363.327 C 156.934 359.196, 155.883 357.361, 152.027 354.704 C 148.838 352.506, 146.242 352.555, 142.420 354.885 M 252.388 353.942 C 251.227 354.432, 249.314 356.057, 248.138 357.552 C 243.147 363.896, 247.780 373, 256 373 C 261.417 373, 266 368.605, 266 363.410 C 266 356.970, 258.151 351.510, 252.388 353.942 M 359.973 354.704 C 356.117 357.361, 355.066 359.196, 355.032 363.327 C 354.963 371.647, 365.230 376.224, 371.314 370.585 C 376.411 365.861, 375.605 358.559, 369.580 354.885 C 365.758 352.555, 363.162 352.506, 359.973 354.704 M 197.147 392.165 C 175.985 395.890, 168.651 422.651, 184.802 437.210 C 200.897 451.720, 227.398 439.768, 227.397 418 C 227.397 410.747, 225.546 405.610, 221.198 400.797 C 215.015 393.953, 205.791 390.643, 197.147 392.165 M 306.344 392.131 C 297.611 393.670, 289.649 399.920, 286.219 407.927 C 284.016 413.070, 284.226 422.544, 286.664 428.011 C 292.015 440.009, 305.086 446.135, 317.624 442.522 C 331.797 438.436, 340.085 421.712, 334.527 408.411 C 329.700 396.857, 317.969 390.081, 306.344 392.131 M 194.923 410.923 C 187.189 418.657, 195.759 431.346, 205.560 426.673 C 209.698 424.699, 212.360 419.916, 211.500 416 C 209.776 408.150, 200.528 405.318, 194.923 410.923 M 303.616 410.657 C 300.048 414.224, 299.378 417.472, 301.354 421.616 C 303.317 425.732, 308.596 428.569, 312.480 427.594 C 316.788 426.513, 320 422.320, 320 417.777 C 320 409.171, 309.615 404.658, 303.616 410.657" stroke="none" fill="black" fill-rule="evenodd"/>
</svg>