<svg xmlns="http://www.w3.org/2000/svg" width="512" height="512" viewBox="0 0 512 512" version="1.1">
	<path d="M 178.459 61.825 C 173.480 64.154, 169.281 68.988, 168.466 73.327 C 168.129 75.125, 167.999 83.630, 168.177 92.228 C 168.466 106.231, 168.718 108.155, 170.592 110.681 C 177.674 120.226, 189.613 121.418, 197.439 113.360 C 202.128 108.532, 203.303 102.695, 202.850 86.485 C 202.533 75.174, 202.190 72.982, 200.190 69.483 C 195.587 61.431, 186.299 58.157, 178.459 61.825 M 60.071 110.752 C 52.307 114.711, 48.433 123.651, 51.022 131.633 C 52.410 135.914, 71.265 156.004, 76.429 158.705 C 86.097 163.761, 99.154 157.161, 101.336 146.115 C 102.710 139.156, 100.580 135.295, 88.743 123.291 C 82.664 117.125, 76.230 111.388, 74.444 110.541 C 70.155 108.505, 64.308 108.591, 60.071 110.752 M 295.360 123.417 C 286.051 125.184, 281.929 126.562, 273.812 130.620 C 266.247 134.401, 257.234 141.252, 251.897 147.278 L 248.294 151.346 245.397 149.298 C 240.730 146, 228.062 139.909, 220.500 137.326 C 198.403 129.780, 168.550 130.276, 146.400 138.556 C 108.892 152.578, 81.858 184.873, 74.457 224.500 C 72.009 237.607, 72.848 259.035, 76.329 272.277 C 79.264 283.443, 85.759 297.809, 92.082 307.121 C 102.401 322.317, 120.584 337.822, 137.500 345.852 L 144.500 349.175 144.599 363.338 C 144.676 374.370, 145.162 379.201, 146.795 385.198 C 155.650 417.709, 180.812 441.868, 214 449.725 C 220.940 451.367, 229.495 451.500, 328.500 451.500 L 435.500 451.500 444 449.264 C 461.615 444.631, 478.896 433.920, 490.247 420.600 C 516.492 389.803, 518.797 346.434, 495.967 313 C 487.545 300.665, 471.200 287.154, 458.430 281.972 C 455.443 280.759, 453 279.357, 453 278.855 C 453 278.354, 454.287 275.368, 455.861 272.221 C 471.293 241.357, 463.783 204.173, 437.402 180.839 C 422.952 168.057, 406.274 162, 385.530 162 L 375.190 162 372.674 157.750 C 366.944 148.071, 356.275 138.215, 343.994 131.254 C 331.390 124.109, 309.929 120.651, 295.360 123.417 M 175.810 167.034 C 155.054 169.482, 134.472 181.600, 122.583 198.372 C 111.988 213.319, 107.872 226.258, 107.875 244.616 C 107.878 269.511, 120.023 292.984, 140.372 307.421 C 147.490 312.471, 156.765 316.702, 157.858 315.396 C 158.270 314.903, 161.150 311.326, 164.257 307.446 C 179.622 288.260, 200.889 277.048, 225.758 275.021 C 231.990 274.513, 237.632 274.262, 238.295 274.464 C 238.958 274.665, 241.565 275.075, 244.089 275.374 C 248.638 275.913, 248.698 275.881, 250.974 271.709 C 252.236 269.394, 255.342 264.813, 257.875 261.528 L 262.482 255.556 262.437 243.528 C 262.388 229.989, 260.841 222.805, 255.540 211.500 C 249.592 198.816, 241.223 188.864, 229.377 180.387 C 214.638 169.841, 194.524 164.827, 175.810 167.034 M 9.500 228.861 C -0.228 234.869, -2.668 246.753, 4.216 254.593 C 9.837 260.995, 11.668 261.495, 29.500 261.498 C 45.136 261.500, 45.606 261.438, 50.154 258.764 C 61.783 251.928, 61.634 235.659, 49.881 229.053 C 46.597 227.207, 44.525 227, 29.364 227.004 C 14.696 227.007, 12.109 227.249, 9.500 228.861 M 76.500 329.556 C 71.911 331.917, 54.200 349.978, 51.973 354.566 C 48.672 361.367, 49.652 367.853, 54.814 373.373 C 59.846 378.756, 67.662 380.460, 74.282 377.619 C 76.052 376.859, 82.517 371.122, 88.648 364.869 C 97.484 355.857, 100.032 352.619, 100.936 349.250 C 102.938 341.794, 98.986 333.113, 91.931 329.464 C 88.239 327.555, 80.296 327.603, 76.500 329.556" stroke="none" fill="black" fill-rule="evenodd"/>
</svg>